<svg width="18" height="18" viewBox="0 0 18 18" fill="none" xmlns="http://www.w3.org/2000/svg">
<path d="M5.04163 5.66669C5.04163 5.50093 5.10747 5.34196 5.22468 5.22475C5.34189 5.10753 5.50087 5.04169 5.66663 5.04169H8.99996C9.16572 5.04169 9.32469 5.10753 9.4419 5.22475C9.55911 5.34196 9.62496 5.50093 9.62496 5.66669C9.62496 5.83245 9.55911 5.99142 9.4419 6.10863C9.32469 6.22584 9.16572 6.29169 8.99996 6.29169H5.66663C5.50087 6.29169 5.34189 6.22584 5.22468 6.10863C5.10747 5.99142 5.04163 5.83245 5.04163 5.66669ZM5.04163 9.00002C5.04163 8.83426 5.10747 8.67529 5.22468 8.55808C5.34189 8.44087 5.50087 8.37502 5.66663 8.37502H12.3333C12.4991 8.37502 12.658 8.44087 12.7752 8.55808C12.8924 8.67529 12.9583 8.83426 12.9583 9.00002C12.9583 9.16578 12.8924 9.32475 12.7752 9.44196C12.658 9.55917 12.4991 9.62502 12.3333 9.62502H5.66663C5.50087 9.62502 5.34189 9.55917 5.22468 9.44196C5.10747 9.32475 5.04163 9.16578 5.04163 9.00002Z" fill="black"/>
<path fill-rule="evenodd" clip-rule="evenodd" d="M7.30496 0.041687H10.695C11.8375 0.041687 12.7341 0.0416871 13.4541 0.10002C14.1875 0.160854 14.7933 0.284187 15.3416 0.564187C16.2433 1.02359 16.9764 1.75667 17.4358 2.65835C17.7158 3.20669 17.8391 3.81252 17.8991 4.54585C17.9583 5.26585 17.9583 6.16252 17.9583 7.30502V8.44252C17.9583 9.73335 17.9583 10.52 17.765 11.1817C17.539 11.9524 17.123 12.6539 16.5551 13.2218C15.9872 13.7897 15.2856 14.2057 14.515 14.4317C13.8533 14.625 13.0666 14.625 11.7758 14.625H11.1458C10.4233 14.6298 9.71966 14.8555 9.12913 15.2717L9.08746 15.3009L6.91246 16.855C5.65829 17.75 4.00996 16.4567 4.58329 15.0267C4.60119 14.9822 4.60787 14.934 4.60276 14.8863C4.59765 14.8387 4.5809 14.793 4.55398 14.7533C4.52706 14.7136 4.49081 14.6812 4.4484 14.6588C4.40599 14.6364 4.35874 14.6248 4.31079 14.625H3.80996C2.81053 14.625 1.85204 14.228 1.14535 13.5213C0.438646 12.8146 0.041626 11.8561 0.041626 10.8567V7.30502C0.041626 6.16252 0.041626 5.26585 0.0999594 4.54585C0.160793 3.81252 0.284126 3.20669 0.564126 2.65835C1.02353 1.75667 1.75661 1.02359 2.65829 0.564187C3.20663 0.284187 3.81246 0.160854 4.54579 0.100854C5.26579 0.041687 6.16246 0.041687 7.30496 0.041687ZM4.64746 1.34669C3.99163 1.40002 3.56829 1.50335 3.22579 1.67752C2.55909 2.01712 2.01706 2.55915 1.67746 3.22585C1.50246 3.56835 1.39996 3.99169 1.34663 4.64752C1.29246 5.31085 1.29163 6.15585 1.29163 7.33335V10.8567C1.29163 11.5246 1.55695 12.1651 2.02923 12.6374C2.26308 12.8713 2.5407 13.0568 2.84623 13.1833C3.15177 13.3099 3.47925 13.375 3.80996 13.375H4.31079C4.56302 13.3748 4.81146 13.4364 5.03434 13.5545C5.25721 13.6726 5.44773 13.8436 5.58919 14.0524C5.73066 14.2612 5.81875 14.5016 5.84577 14.7523C5.87278 15.0031 5.83788 15.2567 5.74413 15.4909C5.63496 15.7625 5.94746 16.0075 6.18579 15.8375L8.40829 14.25C9.20767 13.6866 10.1603 13.3813 11.1383 13.375H11.6533C13.105 13.375 13.6966 13.3684 14.1633 13.2317C14.7328 13.0646 15.2512 12.7572 15.6708 12.3375C16.0905 11.9179 16.3979 11.3995 16.565 10.83C16.7016 10.3634 16.7083 9.77169 16.7083 8.32002V7.33335C16.7083 6.15585 16.7083 5.31085 16.6533 4.64752C16.6 3.99169 16.4966 3.56835 16.3225 3.22585C15.9831 2.55928 15.4414 2.01727 14.775 1.67752C14.4316 1.50252 14.0083 1.40002 13.3525 1.34669C12.6891 1.29252 11.8441 1.29169 10.6666 1.29169H7.33329C6.15579 1.29169 5.31079 1.29169 4.64746 1.34669Z" fill="black"/>
</svg>
