<svg width="20" height="20" viewBox="0 0 20 20" fill="none" xmlns="http://www.w3.org/2000/svg">
<path d="M18.7088 10.811C18.5528 10.811 18.4031 10.8729 18.2928 10.9833C18.1825 11.0936 18.1205 11.2432 18.1205 11.3992V16.6177C18.1205 17.5097 17.4077 18.2353 16.5316 18.2353H3.46829C2.59218 18.2353 1.87935 17.5097 1.87935 16.6177V3.38237C1.87935 2.49037 2.59218 1.76473 3.46829 1.76473H9.26241C9.41842 1.76473 9.56804 1.70275 9.67836 1.59244C9.78867 1.48212 9.85065 1.3325 9.85065 1.17649C9.85065 1.02048 9.78867 0.870863 9.67836 0.760547C9.56804 0.650231 9.41842 0.588257 9.26241 0.588257H3.46829C1.94347 0.588257 0.702881 1.84167 0.702881 3.38237V16.6177C0.702881 18.1584 1.94347 19.4118 3.46829 19.4118H16.5316C18.0564 19.4118 19.297 18.1584 19.297 16.6177V11.3992C19.297 11.2432 19.235 11.0936 19.1247 10.9833C19.0144 10.8729 18.8648 10.811 18.7088 10.811Z" fill="black"/>
<path d="M9.27661 6.12967C9.27661 6.28568 9.33859 6.4353 9.4489 6.54561C9.55922 6.65593 9.70884 6.7179 9.86485 6.7179H13.5534V10.4628C13.5534 10.6189 13.6154 10.7685 13.7257 10.8788C13.836 10.9891 13.9857 11.0511 14.1417 11.0511C14.2977 11.0511 14.4473 10.9891 14.5576 10.8788C14.6679 10.7685 14.7299 10.6189 14.7299 10.4628V6.7179H18.4185C18.5745 6.7179 18.7241 6.65593 18.8344 6.54561C18.9448 6.4353 19.0067 6.28568 19.0067 6.12967C19.0067 5.97366 18.9448 5.82404 18.8344 5.71372C18.7241 5.60341 18.5745 5.54143 18.4185 5.54143H14.7299V1.79661C14.7299 1.6406 14.6679 1.49098 14.5576 1.38066C14.4473 1.27035 14.2977 1.20837 14.1417 1.20837C13.9857 1.20837 13.836 1.27035 13.7257 1.38066C13.6154 1.49098 13.5534 1.6406 13.5534 1.79661V5.54155H9.86485C9.70884 5.54155 9.55922 5.60353 9.4489 5.71384C9.33859 5.82416 9.27661 5.97366 9.27661 6.12967Z" fill="black"/>
</svg>
