<svg width="20" height="20" viewBox="0 0 20 20" fill="none" xmlns="http://www.w3.org/2000/svg">
<path d="M5.9375 14.375C5.9375 14.2092 6.00335 14.0503 6.12056 13.9331C6.23777 13.8158 6.39674 13.75 6.5625 13.75H13.4375C13.6033 13.75 13.7622 13.8158 13.8794 13.9331C13.9967 14.0503 14.0625 14.2092 14.0625 14.375C14.0625 14.5408 13.9967 14.6997 13.8794 14.8169C13.7622 14.9342 13.6033 15 13.4375 15H6.5625C6.39674 15 6.23777 14.9342 6.12056 14.8169C6.00335 14.6997 5.9375 14.5408 5.9375 14.375Z" fill="#1F2937"/>
<path fill-rule="evenodd" clip-rule="evenodd" d="M12.7 1.54686C11.1147 0.317795 8.88531 0.317795 7.3 1.54686L2.3 5.42436C1.77955 5.82632 1.35801 6.34208 1.06768 6.93211C0.777347 7.52215 0.62592 8.17082 0.625 8.82842V15.0487C0.625 17.4456 2.59156 19.375 5 19.375H15C17.4084 19.375 19.375 17.4459 19.375 15.0487V8.82842C19.375 7.4978 18.7559 6.24342 17.7 5.42436L12.7 1.54686ZM8.06594 2.53467C8.61983 2.10698 9.29989 1.87498 9.99969 1.87498C10.6995 1.87498 11.3795 2.10698 11.9334 2.53467L16.9334 6.41217C17.3033 6.69721 17.603 7.06313 17.8095 7.4819C18.016 7.90067 18.124 8.36117 18.125 8.82811V15.0484C18.125 16.74 16.7337 18.125 15 18.125H5C3.26625 18.125 1.875 16.74 1.875 15.0487V8.82842C1.875 7.8878 2.3125 6.99655 3.06625 6.41217L8.06594 2.53467Z" fill="#1F2937"/>
</svg>
