<svg width="20" height="20" viewBox="0 0 20 20" fill="none" xmlns="http://www.w3.org/2000/svg">
<path d="M19.0909 10.9091C18.8182 10.9091 18.6364 11.091 18.6364 11.3636V17.2728C18.6364 17.5455 18.4545 17.7273 18.1819 17.7273H1.81818C1.54545 17.7273 1.36365 17.5454 1.36365 17.2728V11.3636C1.36365 11.0909 1.18182 10.9091 0.909121 10.9091C0.636426 10.9091 0.45459 11.091 0.45459 11.3636V17.2728C0.45459 18.0455 1.04549 18.6364 1.81822 18.6364H18.1819C18.9546 18.6364 19.5455 18.0455 19.5455 17.2728V11.3636C19.5455 11.0909 19.3637 10.9091 19.0909 10.9091Z" fill="black"/>
<path d="M18.6364 4.54548H1.36363C0.590898 4.54548 0 5.13638 0 5.90912V8.81822C0 9.45455 0.454531 10 1.04547 10.1364L8.18184 11.7273V13.1818C8.18184 13.4545 8.36367 13.6363 8.63637 13.6363H11.3636C11.6364 13.6363 11.8182 13.4545 11.8182 13.1818V11.7273L18.9545 10.1364C19.5455 10 20 9.45455 20 8.81818V5.90908C20 5.13638 19.4091 4.54548 18.6364 4.54548ZM10.9091 12.7273H9.09094V10.9091H10.9091V12.7273ZM19.0909 8.81818C19.0909 9.04544 18.9545 9.22728 18.7273 9.27271L11.8182 10.8182V10.4545C11.8182 10.1818 11.6363 10 11.3636 10H8.63637C8.36363 10 8.18184 10.1819 8.18184 10.4545V10.8182L1.27273 9.27275C1.04547 9.22728 0.909102 9.04548 0.909102 8.81822V5.90912C0.909102 5.63638 1.09094 5.45459 1.36363 5.45459H18.6364C18.9091 5.45459 19.0909 5.63642 19.0909 5.90912V8.81818ZM12.2727 1.36365H7.72727C6.95453 1.36365 6.36363 1.95455 6.36363 2.72728V3.18181C6.36363 3.45455 6.54547 3.63634 6.81816 3.63634C7.09086 3.63634 7.2727 3.45451 7.2727 3.18181V2.72728C7.2727 2.45455 7.45453 2.27275 7.72723 2.27275H12.2727C12.5454 2.27275 12.7272 2.45458 12.7272 2.72728V3.18181C12.7272 3.45455 12.9091 3.63634 13.1818 3.63634C13.4545 3.63634 13.6363 3.45451 13.6363 3.18181V2.72728C13.6364 1.95455 13.0455 1.36365 12.2727 1.36365Z" fill="black"/>
</svg>
