<svg width="20" height="20" viewBox="0 0 20 20" fill="none" xmlns="http://www.w3.org/2000/svg">
<path d="M13.76 19.4H6.23998C4.74463 19.3984 3.31098 18.8037 2.25361 17.7463C1.19624 16.689 0.601531 15.2553 0.599976 13.76V6.23998C0.601531 4.74463 1.19624 3.31098 2.25361 2.25361C3.31098 1.19624 4.74463 0.601531 6.23998 0.599976L13.76 0.599976C15.2553 0.601531 16.689 1.19624 17.7463 2.25361C18.8037 3.31098 19.3984 4.74463 19.4 6.23998V13.76C19.3984 15.2553 18.8037 16.689 17.7463 17.7463C16.689 18.8037 15.2553 19.3984 13.76 19.4ZM6.23998 1.85135C5.07652 1.85291 3.96116 2.31578 3.13847 3.13847C2.31578 3.96116 1.85291 5.07652 1.85135 6.23998V13.76C1.85291 14.9234 2.31578 16.0388 3.13847 16.8615C3.96116 17.6842 5.07652 18.147 6.23998 18.1486H13.76C14.9234 18.147 16.0388 17.6842 16.8615 16.8615C17.6842 16.0388 18.147 14.9234 18.1486 13.76V6.23998C18.147 5.07652 17.6842 3.96116 16.8615 3.13847C16.0388 2.31578 14.9234 1.85291 13.76 1.85135H6.23998Z" fill="black"/>
<path d="M10.0001 11.2514C9.25641 11.2514 8.52945 11.0309 7.91113 10.6177C7.2928 10.2046 6.81087 9.61733 6.52628 8.93028C6.2417 8.24323 6.16724 7.48722 6.31232 6.75785C6.4574 6.02848 6.8155 5.35851 7.34135 4.83266C7.86719 4.30682 8.53716 3.94871 9.26653 3.80363C9.9959 3.65855 10.7519 3.73301 11.439 4.0176C12.126 4.30218 12.7132 4.78411 13.1264 5.40244C13.5395 6.02077 13.7601 6.74773 13.7601 7.49139C13.7585 8.48812 13.3619 9.44359 12.6571 10.1484C11.9523 10.8532 10.9968 11.2498 10.0001 11.2514ZM10.0001 4.98864C9.50391 4.98864 9.01889 5.13576 8.60635 5.41142C8.19381 5.68707 7.87227 6.07886 7.6824 6.53725C7.49253 6.99564 7.44285 7.50004 7.53965 7.98667C7.63644 8.4733 7.87537 8.92029 8.2262 9.27113C8.57704 9.62196 9.02404 9.86089 9.51066 9.95768C9.99729 10.0545 10.5017 10.0048 10.9601 9.81493C11.4185 9.62506 11.8103 9.30352 12.0859 8.89098C12.3616 8.47844 12.5087 7.99342 12.5087 7.49726C12.5087 6.83193 12.2444 6.19385 11.7739 5.7234C11.3035 5.25294 10.6654 4.98864 10.0001 4.98864ZM14.3946 15.0878C14.2379 15.0881 14.0869 15.0294 13.9716 14.9233C13.1642 14.1708 12.1024 13.7511 10.9988 13.7483H9.00719C7.90358 13.7511 6.84179 14.1708 6.03445 14.9233C5.97433 14.9833 5.90266 15.0306 5.82377 15.0621C5.74488 15.0937 5.6604 15.109 5.57545 15.107C5.4905 15.105 5.40683 15.0858 5.3295 15.0506C5.25218 15.0153 5.1828 14.9648 5.12556 14.902C5.06832 14.8392 5.02441 14.7654 4.99648 14.6852C4.96855 14.6049 4.95718 14.5198 4.96305 14.435C4.96893 14.3503 4.99193 14.2676 5.03067 14.1919C5.06941 14.1163 5.12309 14.0493 5.18844 13.995C6.22936 13.0373 7.59273 12.5066 9.00719 12.5086H10.9929C12.411 12.5084 13.777 13.0434 14.8176 14.0068C14.909 14.0926 14.9727 14.2038 15.0004 14.3261C15.0281 14.4484 15.0186 14.5762 14.9731 14.693C14.9276 14.8099 14.8482 14.9105 14.7451 14.9819C14.642 15.0533 14.52 15.0922 14.3946 15.0936V15.0878Z" fill="black"/>
</svg>
