<svg width="20" height="20" viewBox="0 0 20 20" fill="none" xmlns="http://www.w3.org/2000/svg">
<path d="M15.8 1.30001H14.64V0.720015C14.64 0.400015 14.38 0.140015 14.06 0.140015C13.74 0.140015 13.48 0.400015 13.48 0.720015V1.30001H6.51997V0.720015C6.51997 0.400015 6.25997 0.140015 5.93997 0.140015C5.61997 0.140015 5.35997 0.400015 5.35997 0.720015V1.30001H4.19997C2.27797 1.30001 0.719971 2.85801 0.719971 4.78001V16.38C0.719971 18.302 2.27797 19.86 4.19997 19.86H15.8C17.722 19.86 19.28 18.302 19.28 16.38V4.78001C19.28 2.85801 17.722 1.30001 15.8 1.30001ZM18.12 16.38C18.118 17.66 17.08 18.698 15.8 18.7H4.19997C2.91997 18.698 1.88197 17.66 1.87997 16.38V7.10001H18.12V16.38ZM18.12 5.94001H1.87997V4.78001C1.88197 3.50001 2.91997 2.46201 4.19997 2.46001H5.35997V3.04001C5.35997 3.36001 5.61997 3.62001 5.93997 3.62001C6.25997 3.62001 6.51997 3.36001 6.51997 3.04001V2.46001H13.48V3.04001C13.48 3.36001 13.74 3.62001 14.06 3.62001C14.38 3.62001 14.64 3.36001 14.64 3.04001V2.46001H15.8C17.08 2.46201 18.118 3.50001 18.12 4.78001V5.94001ZM6.68997 13.89C6.58331 13.7793 6.52489 13.6308 6.52751 13.4771C6.53013 13.3234 6.59359 13.177 6.70397 13.07C6.81192 12.9652 6.95648 12.9065 7.10697 12.9065C7.25746 12.9065 7.40202 12.9652 7.50997 13.07L9.37197 14.932L13.606 9.63801C13.806 9.38801 14.172 9.34801 14.422 9.54801C14.672 9.74802 14.712 10.114 14.512 10.364L9.87197 16.164C9.76797 16.292 9.61597 16.372 9.45197 16.38H9.41997C9.26597 16.38 9.11797 16.32 9.00997 16.21L6.68997 13.89Z" fill="black"/>
</svg>
