<svg xmlns="http://www.w3.org/2000/svg" version="1.1" xmlns:xlink="http://www.w3.org/1999/xlink" width="512" height="512" x="0" y="0" viewBox="0 0 24 24" style="enable-background:new 0 0 512 512" xml:space="preserve" class=""><g><path d="M9.75 13.75H11V17a1 1 0 0 0 2 0v-3.25h1.25c.666 0 1.001-.809.53-1.28l-2.25-2.25c-.146-.147-.338-.22-.53-.22s-.384.073-.53.22l-2.25 2.25c-.471.471-.136 1.28.53 1.28z" fill="#000000" opacity="1" data-original="#000000" class=""></path><path d="M15 22H9c-1.103 0-2-.897-2-2v-1a1 1 0 0 1 2 0v1h6v-1a1 1 0 0 1 2 0v1c0 1.103-.897 2-2 2z" fill="#000000" opacity="1" data-original="#000000" class=""></path><path d="M21 20.25h-1.5a1 1 0 1 1 0-2H21c.552 0 1-.449 1-1V7c0-.551-.448-1-1-1H10.25a.996.996 0 0 1-.707-.293L7.836 4H3c-.552 0-1 .449-1 1v12.25c0 .551.448 1 1 1h1.5a1 1 0 1 1 0 2H3c-1.654 0-3-1.346-3-3V5c0-1.654 1.346-3 3-3h5.25c.266 0 .52.105.707.293L10.664 4H21c1.654 0 3 1.346 3 3v10.25c0 1.654-1.346 3-3 3z" fill="#000000" opacity="1" data-original="#000000" class=""></path></g></svg>